<svg xmlns="http://www.w3.org/2000/svg" viewBox="0 0 576 512" fill="currentColor" aria-hidden="true"><path transform="translate(0 448) scale(1 -1)" d="M385 280Q316 280 268.0 235.0Q220 190 220 126Q220 106 226 86Q216 85 208 85Q189 85 140 94L72 60L91 119Q13 174 13 251Q13 320 70.0 368.0Q127 416 208 416Q279 416 335.5 377.0Q392 338 404 279Q395 280 385 280ZM281 333Q269 333 260.0 326.5Q251 320 251.0 309.0Q251 298 260.0 291.5Q269 285 281 285Q292 285 298.5 291.5Q305 298 305.0 309.0Q305 320 298.5 326.5Q292 333 281 333ZM144 285Q155 285 162.0 291.5Q169 298 169.0 309.0Q169 320 162.0 326.5Q155 333 144 333Q133 333 124.0 326.5Q115 320 115.0 309.0Q115 298 124.0 291.5Q133 285 144 285ZM563 129Q563 68 495 16L510 -32L456 -3Q416 -13 398 -13Q328 -13 280.0 28.5Q232 70 232.0 128.5Q232 187 280.0 228.5Q328 270 398 270Q464 270 513.5 228.0Q563 186 563 129ZM344 153Q351 153 356.5 156.0Q362 159 365.0 163.5Q368 168 368 173Q368 176 366.5 179.5Q365 183 362.0 186.0Q359 189 354.0 190.5Q349 192 344 192Q337 192 331.0 186.0Q325 180 325 173Q325 169 326.5 165.5Q328 162 330.5 159.0Q333 156 336.5 154.5Q340 153 344 153ZM451 153Q458 153 463.5 156.0Q469 159 472.0 163.5Q475 168 475 173Q475 180 468.0 186.0Q461 192 451 192Q444 192 438.0 186.0Q432 180 432.0 172.5Q432 165 438.0 159.0Q444 153 451 153Z"/></svg>
